{
  "accessors": [
    {
      "bufferView": 2,
      "componentType": 5126,
      "count": 88,
      "max": [
        0.5149999856948853,
        0.053333330899477005,
        2.0999999046325684
      ],
      "min": [
        -0.5149999856948853,
        -0.026666665449738503,
        0.0
      ],
      "type": "VEC3"
    },
    {
      "bufferView": 2,
      "byteOffset": 1056,
      "componentType": 5126,
      "count": 88,
      "max": [
        1.0,
        1.0,
        1.0
      ],
      "min": [
        -1.0,
        -1.0,
        -1.0
      ],
      "type": "VEC3"
    },
    {
      "bufferView": 1,
      "componentType": 5126,
      "count": 88,
      "max": [
        1.0920531749725342,
        0.8559443354606628
      ],
      "min": [
        -0.0037517249584198,
        0.14366307854652405
      ],
      "type": "VEC2"
    },
    {
      "bufferView": 0,
      "componentType": 5125,
      "count": 138,
      "type": "SCALAR"
    },
    {
      "bufferView": 2,
      "byteOffset": 2112,
      "componentType": 5126,
      "count": 24,
      "max": [
        0.0,
        0.03399999812245369,
        0.9639999270439148
      ],
      "min": [
        -0.8659999966621399,
        0.0,
        -1.0460000038146973
      ],
      "type": "VEC3"
    },
    {
      "bufferView": 2,
      "byteOffset": 2400,
      "componentType": 5126,
      "count": 24,
      "max": [
        1.0,
        1.0,
        1.0
      ],
      "min": [
        -1.0,
        -1.0,
        -1.0
      ],
      "type": "VEC3"
    },
    {
      "bufferView": 1,
      "byteOffset": 704,
      "componentType": 5126,
      "count": 24,
      "max": [
        1.0,
        1.0
      ],
      "min": [
        0.0,
        0.0
      ],
      "type": "VEC2"
    },
    {
      "bufferView": 0,
      "byteOffset": 552,
      "componentType": 5125,
      "count": 36,
      "type": "SCALAR"
    },
    {
      "bufferView": 2,
      "byteOffset": 2688,
      "componentType": 5126,
      "count": 2258,
      "max": [
        0.13630202412605286,
        -0.002755294553935528,
        0.04065270721912384
      ],
      "min": [
        -0.04066336154937744,
        -0.07240236550569534,
        -0.040774788707494736
      ],
      "type": "VEC3"
    },
    {
      "bufferView": 2,
      "byteOffset": 29784,
      "componentType": 5126,
      "count": 2258,
      "max": [
        0.999343752861023,
        0.9999903440475464,
        0.9999079704284668
      ],
      "min": [
        -0.999144434928894,
        -0.999983549118042,
        -0.999151349067688
      ],
      "type": "VEC3"
    },
    {
      "bufferView": 0,
      "byteOffset": 696,
      "componentType": 5125,
      "count": 13248,
      "type": "SCALAR"
    },
    {
      "bufferView": 2,
      "byteOffset": 56880,
      "componentType": 5126,
      "count": 2258,
      "max": [
        0.13630202412605286,
        -0.002755294553935528,
        0.04065270721912384
      ],
      "min": [
        -0.04066336154937744,
        -0.07240236550569534,
        -0.040774788707494736
      ],
      "type": "VEC3"
    },
    {
      "bufferView": 2,
      "byteOffset": 83976,
      "componentType": 5126,
      "count": 2258,
      "max": [
        0.999343752861023,
        0.9999903440475464,
        0.9999079704284668
      ],
      "min": [
        -0.999144434928894,
        -0.999983549118042,
        -0.999151349067688
      ],
      "type": "VEC3"
    },
    {
      "bufferView": 0,
      "byteOffset": 53688,
      "componentType": 5125,
      "count": 13248,
      "type": "SCALAR"
    },
    {
      "bufferView": 2,
      "byteOffset": 111072,
      "componentType": 5126,
      "count": 24,
      "max": [
        0.5149999856948853,
        0.23999999463558197,
        2.0999999046325684
      ],
      "min": [
        -0.5149999856948853,
        0.0,
        0.0
      ],
      "type": "VEC3"
    },
    {
      "bufferView": 2,
      "byteOffset": 111360,
      "componentType": 5126,
      "count": 24,
      "max": [
        1.0,
        1.0,
        1.0
      ],
      "min": [
        -1.0,
        -1.0,
        -1.0
      ],
      "type": "VEC3"
    },
    {
      "bufferView": 0,
      "byteOffset": 106680,
      "componentType": 5125,
      "count": 36,
      "type": "SCALAR"
    },
    {
      "bufferView": 2,
      "byteOffset": 111648,
      "componentType": 5126,
      "count": 8,
      "max": [
        0.5149999856948853,
        0.4000000059604645,
        0.4000000059604645
      ],
      "min": [
        -0.5149999856948853,
        0.0,
        0.0
      ],
      "type": "VEC3"
    },
    {
      "bufferView": 2,
      "byteOffset": 111744,
      "componentType": 5126,
      "count": 8,
      "max": [
        1.0,
        0.0,
        0.0
      ],
      "min": [
        -1.0,
        0.0,
        0.0
      ],
      "type": "VEC3"
    },
    {
      "bufferView": 0,
      "byteOffset": 106824,
      "componentType": 5125,
      "count": 12,
      "type": "SCALAR"
    },
    {
      "bufferView": 2,
      "byteOffset": 111840,
      "componentType": 5126,
      "count": 24,
      "max": [
        1.0,
        0.0,
        0.11999999731779099
      ],
      "min": [
        0.0,
        -0.014999999664723873,
        0.0
      ],
      "type": "VEC3"
    },
    {
      "bufferView": 2,
      "byteOffset": 112128,
      "componentType": 5126,
      "count": 24,
      "max": [
        1.0,
        1.0,
        1.0
      ],
      "min": [
        -1.0,
        -1.0,
        -1.0
      ],
      "type": "VEC3"
    },
    {
      "bufferView": 1,
      "byteOffset": 896,
      "componentType": 5126,
      "count": 24,
      "max": [
        0.46682998538017273,
        0.4166797697544098
      ],
      "min": [
        0.4168378412723541,
        7.897102477727458e-05
      ],
      "type": "VEC2"
    },
    {
      "bufferView": 0,
      "byteOffset": 106872,
      "componentType": 5125,
      "count": 36,
      "type": "SCALAR"
    }
  ],
  "asset": {
    "extras": {
      "author": "fakepad (https://sketchfab.com/fakepad)",
      "license": "CC-BY-4.0 (http://creativecommons.org/licenses/by/4.0/)",
      "source": "https://sketchfab.com/3d-models/wooden-door-97b7c19c1e254b2ea03f7184fe8223ec",
      "title": "Wooden Door"
    },
    "generator": "Sketchfab-14.5.0",
    "version": "2.0"
  },
  "bufferViews": [
    {
      "buffer": 0,
      "byteLength": 107016,
      "name": "floatBufferViews",
      "target": 34963
    },
    {
      "buffer": 0,
      "byteLength": 1088,
      "byteOffset": 107016,
      "byteStride": 8,
      "name": "floatBufferViews",
      "target": 34962
    },
    {
      "buffer": 0,
      "byteLength": 112416,
      "byteOffset": 108104,
      "byteStride": 12,
      "name": "floatBufferViews",
      "target": 34962
    }
  ],
  "buffers": [
    {
      "byteLength": 220520,
      "uri": "scene.bin"
    }
  ],
  "extensionsUsed": [
    "KHR_texture_transform"
  ],
  "images": [
    {
      "uri": "textures/Door_material_baseColor.jpeg"
    }
  ],
  "materials": [
    {
      "doubleSided": true,
      "name": "Door_material",
      "pbrMetallicRoughness": {
        "baseColorTexture": {
          "extensions": {
            "KHR_texture_transform": {
              "rotation": 3.141592653589793
            }
          },
          "index": 0
        },
        "metallicFactor": 0.0,
        "roughnessFactor": 0.8211145618000169
      }
    },
    {
      "doubleSided": true,
      "name": "Handle_material",
      "pbrMetallicRoughness": {
        "baseColorFactor": [
          0.736001,
          0.520956,
          0.453602,
          1.0
        ],
        "roughnessFactor": 0.0
      }
    },
    {
      "alphaMode": "BLEND",
      "doubleSided": true,
      "name": "hidden_material",
      "pbrMetallicRoughness": {
        "baseColorFactor": [
          1.0,
          1.0,
          1.0,
          0.0
        ],
        "metallicFactor": 0.0,
        "roughnessFactor": 0.7550510257216823
      }
    },
    {
      "doubleSided": true,
      "name": "Baseboard_material",
      "pbrMetallicRoughness": {
        "baseColorTexture": {
          "index": 0
        },
        "metallicFactor": 0.0,
        "roughnessFactor": 0.8211145618000169
      }
    }
  ],
  "meshes": [
    {
      "name": "DoorFrame_Door_material_0",
      "primitives": [
        {
          "attributes": {
            "NORMAL": 1,
            "POSITION": 0,
            "TEXCOORD_0": 2
          },
          "indices": 3,
          "material": 0,
          "mode": 4
        }
      ]
    },
    {
      "name": "Door_Door_material_0",
      "primitives": [
        {
          "attributes": {
            "NORMAL": 5,
            "POSITION": 4,
            "TEXCOORD_0": 6
          },
          "indices": 7,
          "material": 0,
          "mode": 4
        }
      ]
    },
    {
      "name": "Handle_Front_Handle_material_0",
      "primitives": [
        {
          "attributes": {
            "NORMAL": 9,
            "POSITION": 8
          },
          "indices": 10,
          "material": 1,
          "mode": 4
        }
      ]
    },
    {
      "name": "Handle_Back_Handle_material_0",
      "primitives": [
        {
          "attributes": {
            "NORMAL": 12,
            "POSITION": 11
          },
          "indices": 13,
          "material": 1,
          "mode": 4
        }
      ]
    },
    {
      "name": "CTRL_Hole_hidden_material_0",
      "primitives": [
        {
          "attributes": {
            "NORMAL": 15,
            "POSITION": 14
          },
          "indices": 16,
          "material": 2,
          "mode": 4
        }
      ]
    },
    {
      "name": "CTRL_Baseboard_hidden_material_0",
      "primitives": [
        {
          "attributes": {
            "NORMAL": 18,
            "POSITION": 17
          },
          "indices": 19,
          "material": 2,
          "mode": 4
        }
      ]
    },
    {
      "name": "Baseboard_Baseboard_material_0",
      "primitives": [
        {
          "attributes": {
            "NORMAL": 21,
            "POSITION": 20,
            "TEXCOORD_0": 22
          },
          "indices": 23,
          "material": 3,
          "mode": 4
        }
      ]
    }
  ],
  "nodes": [
    {
      "children": [
        1
      ],
      "matrix": [
        1.0,
        0.0,
        0.0,
        0.0,
        0.0,
        2.220446049250313e-16,
        -1.0,
        0.0,
        0.0,
        1.0,
        2.220446049250313e-16,
        0.0,
        0.0,
        0.0,
        0.0,
        1.0
      ],
      "name": "Sketchfab_model"
    },
    {
      "children": [
        2
      ],
      "matrix": [
        0.009999999776482582,
        0.0,
        0.0,
        0.0,
        0.0,
        0.0,
        0.009999999776482582,
        0.0,
        0.0,
        -0.009999999776482582,
        0.0,
        0.0,
        0.0,
        0.0,
        0.0,
        1.0
      ],
      "name": "291a44c90bab43ce9b457b47a61216b3.fbx"
    },
    {
      "children": [
        3,
        16
      ],
      "name": "RootNode"
    },
    {
      "children": [
        4,
        12,
        14
      ],
      "matrix": [
        100.0,
        0.0,
        0.0,
        0.0,
        0.0,
        -1.629206793918314e-05,
        -99.99999999999868,
        0.0,
        0.0,
        99.99999999999868,
        -1.629206793918314e-05,
        0.0,
        0.0,
        0.0,
        0.0,
        1.0
      ],
      "name": "Door_Group"
    },
    {
      "children": [
        5,
        6
      ],
      "matrix": [
        1.0,
        0.0,
        0.0,
        0.0,
        0.0,
        1.0,
        -2.646977960169688e-23,
        0.0,
        0.0,
        2.646977960169688e-23,
        1.0,
        0.0,
        0.0,
        0.0,
        0.0,
        1.0
      ],
      "name": "DoorFrame"
    },
    {
      "mesh": 0,
      "name": "DoorFrame_Door_material_0"
    },
    {
      "children": [
        7,
        8,
        10
      ],
      "matrix": [
        0.9287783423330056,
        -0.3706356577734449,
        -7.346839692639297e-40,
        0.0,
        0.3706356577734449,
        0.9287783423330056,
        -2.646977960169688e-23,
        0.0,
        9.810644173793039e-24,
        2.4584558020384033e-23,
        1.0,
        0.0,
        0.43299999833106995,
        -0.022099999710917473,
        1.0499999523162842,
        1.0
      ],
      "name": "Door"
    },
    {
      "mesh": 1,
      "name": "Door_Door_material_0"
    },
    {
      "children": [
        9
      ],
      "matrix": [
        1.0,
        -1.1102230246251568e-16,
        1.323488980084845e-23,
        0.0,
        -1.1102230246251242e-16,
        -0.9999999999999889,
        -1.509957990978371e-07,
        0.0,
        2.9998791078857614e-23,
        1.509957990978371e-07,
        -0.9999999999999889,
        0.0,
        -0.7940000295639038,
        0.028999999165534973,
        0.0,
        1.0
      ],
      "name": "Handle_Front"
    },
    {
      "mesh": 2,
      "name": "Handle_Front_Handle_material_0"
    },
    {
      "children": [
        11
      ],
      "matrix": [
        1.0,
        -1.1102230246251565e-16,
        1.3234889800848443e-23,
        0.0,
        1.1102230246251565e-16,
        1.0,
        -2.646977960169689e-23,
        0.0,
        -1.323488980084844e-23,
        2.646977960169689e-23,
        1.0,
        0.0,
        -0.7940000295639038,
        0.004999980330467224,
        0.0,
        1.0
      ],
      "name": "Handle_Back"
    },
    {
      "mesh": 3,
      "name": "Handle_Back_Handle_material_0"
    },
    {
      "children": [
        13
      ],
      "matrix": [
        1.0,
        0.0,
        0.0,
        0.0,
        0.0,
        1.0,
        -2.646977960169688e-23,
        0.0,
        0.0,
        2.646977960169688e-23,
        1.0,
        0.0,
        0.0,
        -0.11999999731779099,
        -0.0020000000949949026,
        1.0
      ],
      "name": "CTRL_Hole"
    },
    {
      "mesh": 4,
      "name": "CTRL_Hole_hidden_material_0"
    },
    {
      "children": [
        15
      ],
      "matrix": [
        1.0,
        0.0,
        0.0,
        0.0,
        0.0,
        1.0,
        -2.646977960169688e-23,
        0.0,
        0.0,
        2.646977960169688e-23,
        1.0,
        0.0,
        0.0,
        -0.17666666209697723,
        -0.10000000149011612,
        1.0
      ],
      "name": "CTRL_Baseboard"
    },
    {
      "mesh": 5,
      "name": "CTRL_Baseboard_hidden_material_0"
    },
    {
      "children": [
        17
      ],
      "matrix": [
        100.0,
        0.0,
        0.0,
        0.0,
        -0.0,
        -1.629206793918314e-05,
        -99.99999999999868,
        0.0,
        0.0,
        99.99999999999868,
        -1.629206793918314e-05,
        0.0,
        -48.746498107910156,
        0.0,
        0.0,
        1.0
      ],
      "name": "Baseboard"
    },
    {
      "mesh": 6,
      "name": "Baseboard_Baseboard_material_0"
    }
  ],
  "samplers": [
    {
      "magFilter": 9729,
      "minFilter": 9987,
      "wrapS": 10497,
      "wrapT": 10497
    }
  ],
  "scene": 0,
  "scenes": [
    {
      "name": "Sketchfab_Scene",
      "nodes": [
        0
      ]
    }
  ],
  "textures": [
    {
      "sampler": 0,
      "source": 0
    }
  ]
}
